PathFileType	4	(X/Y/Z)	D:\TRACE\v60_Jaco2_6-2-23\BothDRS_Motion1_2-v60.trc
DataRate	CameraRate	NumFrames	NumMarkers	Units	OrigDataRate	OrigDataStartFrame	OrigNumFrames
100.00	100.00	      38	9	mm	100.00	5228	      6970
Frame#	Time	front left toe			Front right toe			aft left toe			aft right toe			Arm			FL body			FR body			AL Body			AR Body			
		X1	Y1	Z1	X2	Y2	Z2	X3	Y3	Z3	X4	Y4	Z4	X5	Y5	Z5	X6	Y6	Z6	X7	Y7	Z7	X8	Y8	Z8	X9	Y9	Z9	

5228	52.270	-281.29184	7.53920	-248.12161	128.02357	11.32467	-260.38516	-220.27876	29.55128	380.04623	111.46564	30.05024	367.79788	-44.23151	1072.25305	-612.05920	-160.08449	555.21277	-386.99896	0.27633	557.64612	-390.89566	-135.73277	585.43750	557.85065	21.01312	582.42914	555.42462	
5229	52.280	-280.75696	8.35322	-248.50011	124.34518	15.42912	-257.26947	-217.31392	32.87619	383.58002	112.02205	30.14873	366.17624	-43.51958	1072.74622	-611.83472	-159.43623	555.90625	-388.10712	0.58050	558.31079	-391.62546	-137.19292	586.20514	557.19409	19.51091	583.11011	554.78589	
5230	52.290	-280.54364	7.80546	-248.86375	121.23936	24.58331	-255.91470	-214.84178	41.48897	383.94852	112.56486	30.25803	366.44983	-43.34325	1073.22144	-611.54718	-159.71074	556.21881	-389.21979	1.28699	558.97192	-392.63806	-138.88205	586.69781	556.21899	18.23097	583.78082	553.92889	
5231	52.300	-280.30316	7.81905	-248.71147	119.72552	34.61873	-255.68265	-214.15076	52.32693	382.46649	112.66293	30.12983	366.72876	-43.00817	1074.28564	-610.95508	-158.51219	556.03741	-389.43771	1.25022	558.88873	-393.31891	-139.43257	587.23315	555.36041	17.25199	584.57471	553.37372	
5232	52.310	-279.70016	7.57038	-248.79787	119.48023	46.59809	-257.02771	-213.62936	63.35591	380.01691	113.15073	30.36767	366.58521	-42.77269	1075.59058	-610.37793	-158.92435	556.30444	-390.22369	1.11449	558.99286	-393.88223	-140.32300	587.66138	554.68799	15.10671	584.83368	554.00488	
5233	52.320	-279.24536	7.48656	-248.83519	120.23623	59.71256	-258.93021	-217.65800	76.43971	376.63593	113.86549	30.16747	366.83478	-42.52359	1076.10217	-609.95538	-159.88327	556.55066	-391.17920	1.04942	559.10785	-394.39474	-140.51558	587.45728	554.13196	14.53708	584.44275	552.86102	
5234	52.330	-278.79965	7.41407	-248.70422	121.03011	72.66666	-261.36868	-222.66792	88.44707	373.72665	115.04076	30.02816	366.87863	-42.39838	1076.15479	-609.23120	-159.48424	556.36200	-391.52335	0.24378	559.30328	-394.77954	-140.70891	586.62140	553.59460	15.01446	583.58307	552.48755	
5235	52.340	-278.29541	7.11281	-248.95416	121.41919	85.87242	-263.35025	-228.32658	100.81026	371.08881	115.31538	29.71942	366.63727	-42.73767	1076.14624	-608.44653	-159.64676	556.35687	-391.93118	-0.30712	559.47089	-395.40891	-140.48129	585.95996	553.14764	15.14063	583.17365	551.83728	
5236	52.350	-277.84970	7.11588	-248.83980	121.35359	97.92916	-265.39908	-231.92300	112.24476	368.45053	115.59872	29.58737	366.50299	-43.25168	1076.15442	-607.85858	-159.78539	556.59161	-392.20206	-0.46265	559.47949	-395.75021	-140.59363	585.37799	552.25067	15.33355	582.15918	552.00745	
5237	52.360	-277.32678	7.05057	-248.83638	120.91504	109.47722	-267.20566	-234.61899	123.07482	366.14026	116.51575	29.69435	366.53580	-43.69525	1076.63696	-607.22217	-160.32848	557.14526	-392.91360	-0.04115	559.62604	-396.36185	-140.78247	584.63940	551.86108	15.27866	581.71735	551.23480	
5238	52.370	-276.90472	7.07463	-248.82582	119.90329	120.24658	-268.91736	-238.70172	134.63046	363.64185	117.57066	29.84431	366.61826	-44.69180	1077.03979	-606.43286	-160.53400	557.43280	-393.27600	0.03812	559.70667	-396.60312	-140.29556	584.24536	551.94257	16.45151	581.21106	550.08026	
5239	52.380	-276.17188	7.08848	-248.75975	118.60926	129.78883	-270.45541	-238.91638	143.23225	362.19803	117.93422	29.50471	366.68353	-45.02238	1077.61597	-605.47504	-160.83611	557.54651	-393.60031	0.16051	559.83185	-396.87000	-140.42340	583.90002	551.89526	16.73540	580.72504	552.03546	
5240	52.390	-275.90955	7.12211	-248.70491	117.88451	136.94099	-271.41397	-240.13814	150.81502	360.57733	118.31302	29.22351	366.50980	-44.59039	1078.22131	-604.49146	-160.97701	557.58081	-393.67816	0.12679	559.88226	-397.01794	-140.30019	583.65564	551.81854	16.74985	580.58600	551.82635	
5241	52.400	-275.39963	7.06143	-248.68439	116.93281	140.57629	-271.73096	-242.17809	154.79126	360.22638	119.21127	29.15965	366.51334	-44.53362	1078.54651	-604.03186	-159.87750	557.18311	-392.97690	-0.04118	559.97021	-397.04715	-139.97534	583.46539	551.94409	16.65289	580.30731	551.83820	
5242	52.410	-274.48923	7.11554	-248.60114	116.57861	141.92056	-271.44324	-244.35080	156.57765	360.24420	120.11413	29.27923	366.72620	-44.56980	1078.81470	-603.38483	-160.00043	557.22522	-392.85941	-0.33918	560.30487	-396.88895	-139.40993	583.30042	551.85962	17.22642	580.40997	549.74872	
5243	52.420	-273.64615	7.14652	-248.44975	116.08372	140.51816	-270.93384	-247.00763	155.07007	360.81985	120.59662	29.23975	366.58578	-44.60073	1078.85718	-602.81738	-161.29610	558.13489	-393.12241	-0.58703	560.72241	-396.81552	-138.26300	583.10675	552.32373	18.26364	580.30176	549.79053	
5244	52.430	-272.94528	7.24845	-248.38948	115.37248	137.28424	-270.16766	-249.33485	152.38380	361.63385	121.06870	29.17545	366.68420	-44.52631	1078.77454	-601.91278	-161.48586	558.42505	-392.88052	-0.92933	561.04474	-396.81027	-137.87804	583.14001	552.51654	18.97890	580.43365	549.87653	
5245	52.440	-272.58835	7.34025	-248.32483	114.39521	132.47026	-269.41531	-251.33459	148.67348	362.82123	122.24620	29.03196	366.73538	-44.67979	1078.66333	-601.38580	-161.41312	558.70776	-392.58377	-0.78583	561.16333	-396.56406	-137.47661	583.16882	552.73071	19.46317	580.22906	550.00098	
5246	52.450	-271.97629	7.30073	-248.41132	112.73489	126.49142	-268.89639	-253.10428	143.70619	363.59045	122.94066	28.92735	366.61398	-45.02420	1079.18591	-600.77710	-161.18854	558.73309	-392.15610	-1.07521	561.03815	-396.05951	-136.63478	583.09418	552.76221	19.75091	580.03790	550.35437	
5247	52.460	-271.05801	7.32063	-248.24718	111.06660	119.46174	-268.49817	-254.89870	137.90283	364.71024	123.61894	28.87629	366.63449	-45.17908	1079.35706	-600.19202	-160.96509	558.71558	-391.79132	-1.04208	560.91949	-395.81674	-135.78203	583.18811	552.99451	20.55088	579.86462	550.56177	
5248	52.470	-270.26773	7.29574	-248.10515	108.98377	111.53516	-268.41666	-256.71011	130.65012	365.72061	124.21783	28.84331	366.72687	-45.10569	1079.63525	-599.43903	-160.44031	558.45135	-391.28748	-1.17335	560.92328	-395.59818	-135.38785	583.28583	553.54437	21.35172	579.81146	550.76190	
5249	52.480	-269.78241	7.41795	-247.84294	107.14270	102.61594	-268.24030	-259.01456	122.75214	366.41626	125.28618	28.88647	366.91653	-44.80515	1079.70435	-598.76678	-160.58569	558.81274	-390.70532	-1.23831	561.03503	-395.45425	-134.72955	583.09070	553.88855	21.96356	579.52252	551.00964	
5250	52.490	-269.23459	7.57811	-247.88078	105.64420	92.72332	-267.71881	-261.23090	113.76987	367.28494	126.01256	28.74519	366.95645	-44.80721	1079.66113	-598.43665	-160.54965	559.18158	-390.26352	-0.67253	561.03784	-395.41089	-134.58044	582.84460	553.89600	22.32109	579.30597	551.17303	
5251	52.500	-268.57327	7.55933	-247.84982	103.93104	81.77502	-267.42145	-263.54205	103.84711	368.21942	126.48866	28.18861	366.76321	-44.61383	1079.44055	-598.09790	-160.68396	559.23010	-389.88434	-0.74275	561.01434	-394.89468	-133.43739	582.45331	554.79016	22.83515	578.67352	551.71423	
5252	52.510	-267.67203	7.42584	-247.93105	101.97054	69.68708	-266.51984	-265.17749	93.77248	369.31952	127.45800	28.20953	366.88303	-44.26515	1079.12622	-597.67444	-161.31296	559.37451	-389.69812	-0.70468	561.00018	-394.47046	-132.79669	582.13104	555.37225	23.73873	578.17499	552.10431	
5253	52.520	-266.78506	7.38793	-247.72090	100.11990	57.17326	-265.26202	-266.80368	84.33730	370.29742	128.04243	28.13321	366.96512	-43.58265	1079.18274	-597.02032	-161.04764	559.44653	-389.07184	-0.86823	560.97809	-394.17209	-133.07999	582.00311	555.47534	24.51008	578.26563	552.35699	
5254	52.530	-266.32654	7.50452	-247.71230	98.88816	45.27365	-263.76337	-266.27505	74.58871	371.59665	128.84918	28.15471	367.08929	-43.17476	1079.29504	-596.56488	-160.46588	559.25885	-388.45926	-0.93217	560.89331	-393.90024	-132.42982	582.11493	556.05676	24.81083	577.87988	552.60699	
5255	52.540	-265.59253	7.53763	-247.67603	97.64066	35.29965	-262.51935	-266.71481	66.15208	373.03262	129.74106	27.91235	367.08087	-42.66880	1079.35461	-595.92682	-160.47098	559.40369	-387.92139	-0.76706	560.71613	-393.56241	-131.52310	581.91925	556.26666	24.58091	577.28589	553.11737	
5256	52.550	-264.74707	7.45487	-247.53355	97.20402	25.55793	-260.78528	-266.47360	57.55054	374.43921	130.54872	27.49369	367.13248	-41.70330	1079.42761	-595.40741	-160.60965	559.71552	-387.46536	-1.01582	560.33252	-392.76346	-131.01089	581.77148	556.85547	25.94111	577.18030	553.52924	
5257	52.560	-264.08505	7.58058	-247.36725	97.22740	17.62937	-259.51703	-267.18842	50.33857	375.20398	131.02736	27.48396	367.19336	-41.12531	1079.27808	-595.46271	-161.24031	560.10828	-387.54465	-0.88828	560.10156	-392.21451	-130.66478	581.76025	557.40253	26.23031	576.75793	554.04175	
5258	52.570	-263.29919	7.66464	-247.37425	97.70091	10.80089	-258.96582	-267.05301	43.73601	376.09628	131.85368	27.55112	367.15814	-40.30320	1078.79163	-595.44006	-160.80258	559.96417	-386.76907	-0.45590	560.27051	-392.01904	-130.21086	581.58295	557.91760	26.52861	576.30017	554.28430	
5259	52.580	-262.47891	7.61796	-247.36491	98.49983	10.34518	-261.21878	-266.82617	37.95817	377.03763	133.02448	27.80952	367.52301	-39.07722	1078.39343	-595.21985	-160.17877	559.98145	-385.88461	-0.61506	560.28687	-391.78375	-129.48827	581.23480	558.32007	26.91098	575.92255	554.92126	
5260	52.590	-261.45038	7.49355	-247.42319	100.07067	7.52238	-261.15445	-266.66019	31.80578	377.79776	133.69933	27.56430	367.44891	-38.07478	1077.90271	-595.02960	-160.61201	560.69415	-385.43124	-0.21700	561.03967	-391.13718	-129.45486	580.89020	558.85297	27.18222	575.47028	555.60406	
5261	52.600	-260.69620	7.80757	-247.05960	100.85618	7.40615	-260.42206	-266.02499	27.28245	377.61096	134.35887	27.34805	367.55463	-37.74245	1077.90161	-594.80524	-160.23549	561.59772	-384.84274	-0.11953	561.81372	-390.27609	-129.60501	580.41174	559.71002	27.54718	575.52289	556.21515	
5262	52.610	-259.73163	8.08562	-247.30179	101.59523	9.04264	-260.54517	-266.45920	26.33143	376.05707	135.33562	27.45498	367.61606	-37.82812	1078.63892	-594.09894	-160.38885	562.83795	-384.38162	-0.55119	562.37549	-389.21500	-129.09514	581.01605	560.09406	27.42633	575.37048	556.79419	
5263	52.620	-258.67078	8.71229	-246.96460	101.91207	8.97706	-259.80490	-265.91025	24.13944	376.94449	135.76367	28.36363	367.81564	-38.47576	1080.05835	-593.72296	-159.90616	562.68634	-383.50095	0.02090	562.22522	-389.29095	-128.53513	583.12299	560.81323	28.02614	577.06696	557.36963	
5264	52.630	-257.86917	12.82154	-246.25824	102.20786	8.01771	-259.36032	-264.41425	24.85445	378.36746	133.87869	31.18254	368.48489	-39.01109	1081.97119	-593.69202	-159.25554	562.73529	-382.85138	-0.09127	562.28107	-388.40524	-128.25122	584.33893	561.03876	28.50306	578.06250	557.81537	
5265	52.640	-253.88374	16.35390	-242.57327	102.90971	8.12840	-259.64120	-263.90564	23.85558	377.07077	131.51245	34.56633	373.69391	-39.46424	1082.79639	-594.52533	-159.40245	563.50671	-382.71811	0.08456	563.00372	-388.34229	-127.43325	585.01636	561.86151	29.34610	578.62317	558.23822	
